<?xml version="1.0" standalone="no"?>
<!DOCTYPE svg PUBLIC "-//W3C//DTD SVG 20010904//EN"
 "http://www.w3.org/TR/2001/REC-SVG-20010904/DTD/svg10.dtd">
<svg version="1.0" xmlns="http://www.w3.org/2000/svg"
 width="300.000000pt" height="300.000000pt" viewBox="0 0 300.000000 300.000000"
 preserveAspectRatio="xMidYMid meet">
<metadata>
Created by potrace 1.10, written by Peter Selinger 2001-2011
</metadata>
<g transform="translate(0.000000,300.000000) scale(0.100000,-0.100000)"
fill="#000000" stroke="none">
<path d="M1484 2238 c-7 -23 -19 -37 -42 -47 -40 -18 -40 -25 -2 -41 19 -8 33
-23 40 -46 15 -43 34 -44 46 -1 7 22 19 36 42 46 17 8 32 17 32 21 0 4 -15 13
-32 21 -23 10 -35 24 -42 47 -5 17 -14 32 -21 32 -7 0 -16 -15 -21 -32z"/>
<path d="M1263 2139 c-16 -16 -4 -49 18 -49 25 0 35 26 19 45 -15 18 -22 19
-37 4z"/>
<path d="M1715 2136 c-16 -12 -17 -16 -6 -30 7 -9 19 -16 26 -16 19 0 28 32
12 47 -11 11 -16 11 -32 -1z"/>
<path d="M1095 1993 c-15 -14 -15 -18 -1 -31 18 -19 46 -9 46 17 0 26 -26 34
-45 14z"/>
<path d="M1874 1995 c-9 -23 4 -47 23 -43 22 4 30 38 11 49 -19 13 -28 11 -34
-6z"/>
<path d="M1517 1979 c-44 -12 -72 -32 -147 -104 l-75 -72 -73 -1 c-40 -1 -88
-8 -105 -16 -38 -16 -93 -69 -113 -108 -22 -42 -28 -116 -15 -166 22 -79 120
-161 193 -162 20 0 32 -10 53 -45 49 -84 82 -113 152 -135 108 -33 173 -8 293
114 64 65 65 66 120 66 130 1 231 104 230 236 -1 100 -104 214 -195 214 -20 0
-29 9 -46 45 -47 100 -171 161 -272 134z m161 -67 c17 -13 51 -48 74 -79 33
-43 54 -61 88 -73 67 -24 98 -48 126 -96 23 -39 25 -51 19 -103 -5 -48 -14
-67 -42 -100 -45 -53 -65 -63 -130 -67 -68 -4 -104 -24 -183 -100 -74 -71
-119 -94 -182 -94 -61 1 -105 28 -168 106 -61 75 -69 80 -123 89 -106 17 -171
185 -107 275 52 74 109 100 216 100 41 0 50 5 121 71 42 40 91 78 108 85 46
21 144 14 183 -14z"/>
<path d="M1498 1897 c-20 -12 -61 -44 -90 -72 -94 -88 -90 -86 -173 -91 -105
-6 -141 -27 -179 -101 -32 -64 3 -155 76 -197 l37 -21 28 21 c23 18 28 29 31
73 4 66 25 64 32 -2 3 -26 13 -56 22 -67 17 -19 24 -21 137 -24 13 -1 26 -7
28 -13 3 -9 -11 -13 -50 -13 -47 0 -58 -4 -75 -25 -26 -33 -19 -58 31 -100 84
-72 164 -57 259 50 59 66 105 92 178 100 108 11 172 71 172 161 0 54 -26 101
-72 131 -63 43 -107 19 -117 -64 -7 -64 -23 -70 -23 -9 0 65 -23 87 -100 98
-67 9 -104 27 -59 29 13 1 28 1 33 0 25 -5 69 14 83 35 14 23 14 26 -7 57 -45
66 -134 86 -202 44z m157 -48 c19 -17 35 -35 35 -40 0 -5 -28 -9 -63 -9 -91 0
-125 -35 -85 -85 20 -26 25 -27 95 -23 l73 3 0 -66 c0 -54 4 -69 20 -84 16
-15 26 -17 48 -9 26 9 27 13 30 87 3 86 8 91 63 54 62 -41 72 -127 22 -181
-33 -36 -62 -46 -135 -46 l-60 0 -98 -95 c-94 -91 -100 -95 -142 -95 -36 0
-52 6 -86 36 -23 19 -42 40 -42 45 0 5 32 9 70 9 57 0 74 4 90 20 25 25 25 45
-1 71 -18 18 -31 20 -107 18 l-87 -2 3 50 c4 64 -11 101 -43 109 -46 11 -65
-18 -65 -98 0 -37 -2 -68 -5 -68 -4 0 -19 7 -34 14 -55 29 -82 101 -58 158 24
55 44 66 127 69 41 1 86 7 100 11 14 5 57 40 95 77 91 89 111 101 162 101 33
0 50 -7 78 -31z"/>
<path d="M1086 1251 c-10 -16 5 -41 24 -41 19 0 34 25 24 41 -3 5 -14 9 -24 9
-10 0 -21 -4 -24 -9z"/>
<path d="M1876 1251 c-11 -18 6 -42 28 -39 29 4 29 42 -1 46 -11 2 -24 -1 -27
-7z"/>
<path d="M1084 995 c-4 -9 -2 -21 4 -27 15 -15 44 -1 40 19 -4 23 -36 29 -44
8z"/>
<path d="M1882 908 c2 -84 6 -103 18 -103 11 0 16 14 18 52 5 85 48 79 54 -7
2 -33 8 -46 21 -48 15 -3 17 5 17 62 0 56 -3 67 -21 76 -11 7 -31 9 -44 6 -21
-5 -24 -2 -27 26 -2 22 -9 34 -21 36 -16 3 -17 -5 -15 -100z"/>
<path d="M993 993 c-7 -3 -13 -12 -13 -22 0 -9 -5 -22 -12 -29 -9 -9 -9 -15 0
-24 7 -7 12 -29 12 -49 0 -28 6 -42 22 -53 32 -22 58 -20 58 4 0 13 -7 20 -18
20 -27 0 -28 66 -1 73 25 7 25 37 -1 37 -13 0 -20 7 -20 19 0 22 -9 30 -27 24z"/>
<path d="M1786 993 c-3 -4 -6 -14 -6 -24 0 -9 -7 -20 -16 -23 -16 -6 -16 -8 0
-24 9 -11 16 -36 16 -61 0 -34 4 -43 24 -53 26 -11 56 -5 56 12 0 6 -11 15
-23 19 -31 12 -36 66 -6 74 25 7 25 37 0 37 -14 0 -18 5 -14 19 5 18 -19 36
-31 24z"/>
<path d="M1096 943 c-3 -4 -6 -37 -6 -75 0 -61 2 -69 18 -66 14 3 18 16 20 69
2 51 -1 68 -12 72 -8 3 -17 3 -20 0z"/>
<path d="M1162 876 c2 -55 6 -71 18 -71 11 0 15 13 16 48 1 53 12 71 37 61 11
-4 17 -21 19 -57 3 -44 6 -52 23 -52 14 0 19 6 18 23 0 12 -1 37 -2 55 -2 51
-14 61 -76 63 l-56 2 3 -72z"/>
<path d="M1300 938 c0 -7 11 -38 23 -69 17 -41 21 -61 14 -77 -11 -24 -2 -56
13 -47 6 4 22 30 35 58 48 107 56 130 46 140 -15 15 -40 -10 -47 -49 -8 -45
-19 -43 -36 8 -12 40 -48 67 -48 36z"/>
<path d="M1460 852 c0 -54 3 -101 6 -105 15 -14 34 8 34 39 0 31 2 34 19 24
28 -14 38 -13 61 10 41 41 14 130 -39 130 -11 0 -23 -5 -27 -11 -4 -8 -9 -8
-17 0 -29 29 -37 12 -37 -87z m101 35 c4 -41 -14 -61 -43 -46 -20 11 -24 49
-6 67 13 13 47 -1 49 -21z"/>
<path d="M1634 936 c-16 -12 -16 -15 -4 -20 8 -2 26 -4 39 -3 13 1 26 -4 28
-10 3 -8 -4 -13 -19 -13 -29 0 -68 -26 -68 -45 0 -29 29 -43 82 -41 l53 1 -3
55 c-2 31 -11 63 -20 73 -18 21 -61 22 -88 3z m61 -87 c0 -8 -10 -15 -22 -17
-25 -4 -33 22 -10 31 18 8 32 2 32 -14z"/>
</g>
</svg>
